<?xml version="1.0" encoding="utf-8"?>
<!-- Generator: Adobe Illustrator 28.3.0, SVG Export Plug-In . SVG Version: 6.00 Build 0)  -->
<svg version="1.1" id="Layer_1" xmlns="http://www.w3.org/2000/svg" xmlns:xlink="http://www.w3.org/1999/xlink" x="0px" y="0px"
	 viewBox="0 0 294.6 50" style="enable-background:new 0 0 294.6 50;" xml:space="preserve">
<style type="text/css">
	.st0{fill:#FDFDFD;}
	.st1{fill:#0C0C0C;}
	.st2{fill:#0E0E0E;}
	.st3{fill:#0A0A0A;}
	.st4{fill:#080808;}
	.st5{fill:#070707;}
	.st6{fill:#050505;}
	.st7{fill:#060606;}
	.st8{fill:#0D0D0D;}
	.st9{fill:#0B0B0B;}
	.st10{fill:#090909;}
	.st11{fill:#FBFBFB;}
	.st12{fill:#010101;}
	.st13{fill:#F4F4F4;}
	.st14{fill:#F6F6F6;}
	.st15{fill:#ECECEC;}
	.st16{fill:#F9F9F9;}
</style>
<g>
	<path class="st0" d="M0,6.3c97.5,0,195.1,0,295.5,0c0,12.4,0,24.8,0,37.5c-97.5,0-195.1,0-295.5,0C0,31.4,0,19,0,6.3z"/>
	<path class="st1" d="M27.2,8c0.2,0.1,0.5,0.2,0.8,0.2c4.8,1.7,8.2,5.1,10.4,9.6c1.8,3.9,2,9.1,0.5,13.2c-1.9,4.7-5.2,8.4-9.9,10.5
		c-4.6,1.9-9.5,1.9-14.1,0c-3.6-1.6-7-4.3-8.7-8.1c-0.1-0.3-0.1-0.3-0.2-0.7c0.7-0.5,0.7-0.5,1.2-0.5c0.7,0.3,0.9,0.8,1.3,1.5
		c2.3,3.7,5.3,5.5,9.3,7c4.4,1,9,0.2,12.8-2c1.1-0.8,2.1-1.6,3-2.6c0.2-0.1,0.3-0.3,0.5-0.4c2.9-3,3.9-7.3,3.9-11.4
		c-0.1-3.8-1.5-7.2-4.1-10c-0.2-0.2-0.3-0.3-0.5-0.5c-2.6-2.8-6.2-4.4-10-4.6c-4.9-0.1-9.1,0.8-12.8,4.3c-2.8,3-4.7,6.7-4.6,10.9
		c0.1-0.1,0.2-0.2,0.3-0.3c0.1-0.1,0.3-0.3,0.4-0.4c0.1-0.1,0.3-0.3,0.4-0.4c0.4-0.3,0.4-0.3,0.8-0.3c0.4,0.6,0.4,0.6,0.7,1.2
		c-0.5,0.6-1.1,1.1-1.6,1.7C6.8,26,6.8,26,6.6,26.3c-0.1,0.2-0.3,0.3-0.5,0.5C6,26.9,5.8,27,5.7,27.2c-0.4,0.3-0.4,0.3-0.9,0.3
		c-0.5-0.2-0.8-0.5-1.3-0.9c-0.2-0.2-0.2-0.2-0.4-0.4c-0.1-0.1-0.3-0.3-0.4-0.4c-0.2-0.2-0.2-0.2-0.4-0.4c-0.4-0.4-0.7-0.7-1.1-1.1
		c0.4-0.4,0.8-0.8,1.2-1.2c0.8,0.8,0.8,0.8,1.7,1.7c0-0.2,0-0.5,0.1-0.7c0.5-5,2.5-9.3,6.4-12.6C15.1,7.6,21.6,5.8,27.2,8z"/>
	<path class="st2" d="M255.5,16.6c0.2,0,0.2,0,0.5,0c0.5,0,1,0,1.5,0c2.3,0,4.2,0,6.1,1.5c1,1.4,0.9,2.9,0.7,4.6
		c-0.2,0.9-0.7,1.5-1.5,2c-0.5,0.3-1.1,0.6-1.6,0.8c0.2,0.2,0.4,0.5,0.6,0.7c0.9,1,1.5,2.1,2.1,3.3c0.1,0.2,0.2,0.4,0.3,0.6
		c0.8,1.5,0.8,1.5,0.8,2.1c-0.6,0-1.3,0-1.9,0c-0.1-0.3-0.3-0.5-0.4-0.8c-1.5-3.1-1.5-3.1-3.7-5.5c-0.5-0.1-0.5-0.1-1-0.1
		c-0.2,0-0.3,0-0.5,0c-0.2,0-0.4,0-0.7,0c-0.7,0-1.4-0.1-2.1-0.1c0,2.1,0,4.3,0,6.5c-0.6,0-1.3,0-1.9,0c0-2,0-4,0-6
		c0-0.9,0-1.9,0-2.8c0-0.9,0-1.8,0-2.7c0-0.3,0-0.7,0-1c0-0.5,0-1,0-1.4c0-0.3,0-0.5,0-0.8C252.8,16.1,254.4,16.6,255.5,16.6z"/>
	<path class="st3" d="M196.7,16.6c8.7,0,8.7,0,10.6,1.5c0.9,1.1,1.1,2,1,3.4c-0.1,1.2-0.6,2.1-1.5,2.9c-0.7,0.5-1.2,0.8-2,1
		c0.2,0.2,0.4,0.5,0.6,0.7c0.9,1,1.5,2.1,2.1,3.3c0.1,0.2,0.2,0.4,0.3,0.6c0.8,1.5,0.8,1.5,0.8,2.1c-0.6,0-1.3,0-1.9,0
		c-0.1-0.2-0.2-0.3-0.3-0.5c-0.4-0.7-0.8-1.5-1.2-2.2c-0.2-0.4-0.2-0.4-0.4-0.8c-0.1-0.2-0.3-0.5-0.4-0.7c-0.1-0.2-0.3-0.5-0.4-0.7
		c-0.5-0.8-1-1.2-1.9-1.4c-0.2,0-0.4,0-0.5,0c-0.3,0-0.3,0-0.5,0c-0.2,0-0.4,0-0.7,0c-0.7,0-1.4,0-2.1-0.1c0,2.1,0,4.3,0,6.5
		c-0.6,0-1.1,0-1.7,0C196.7,27.1,196.7,21.9,196.7,16.6z"/>
	<path class="st0" d="M149.8,18.3c6.1,0,6.1,0,7.5,1.2c1.6,1.6,1.7,3.1,1.7,5.4c0,1.5-0.1,2.8-1.2,4c-2.5,2.2-4.5,1.7-8,1.7
		C149.8,26.5,149.8,22.5,149.8,18.3z"/>
	<path class="st4" d="M74.7,16.6c0.3,0,0.5,0,0.8,0c1.4,3,2.7,6.1,4.1,9.1c0.1,0.2,0.2,0.3,0.2,0.5c0.4,1,0.9,2,1.3,3
		c0.1,0.2,0.2,0.5,0.3,0.7c0.1,0.2,0.2,0.4,0.3,0.7c0.1,0.2,0.2,0.4,0.3,0.6c0.2,0.5,0.2,0.5,0.2,0.9c-0.6,0-1.3,0-1.9,0
		c-0.6-1.3-1.1-2.5-1.7-3.8c-2.6,0-5.2,0-7.9,0c-0.6,1.3-1.1,2.5-1.7,3.8c-0.6,0-1.3,0-1.9,0c0.5-1.5,1-2.8,1.6-4.2
		c0.1-0.2,0.2-0.4,0.3-0.6c0.3-0.6,0.5-1.2,0.8-1.8c0.4-0.8,0.7-1.6,1.1-2.4c0.1-0.2,0.2-0.4,0.3-0.6c0.7-1.5,1.3-3,1.9-4.6
		C73.7,16.6,73.7,16.6,74.7,16.6z"/>
	<path class="st5" d="M168.8,16.9c0.6,0,1.3,0,1.9,0c1.5,3.3,3,6.6,4.5,9.9c0.1,0.2,0.1,0.3,0.2,0.5c0.9,2,0.9,2,1.3,3.1
		c0.1,0.2,0.2,0.4,0.3,0.7c0.2,0.5,0.2,0.5,0.2,1.3c-0.6,0-1.1,0-1.7,0c-0.3-0.6-0.6-1.2-0.8-1.8c-0.1-0.2-0.2-0.3-0.2-0.5
		c-0.6-1.3-0.6-1.3-0.6-1.8c-2.7,0-5.4,0-8.2,0c-0.1,0.6-0.1,0.6-0.2,1.2c-0.2,0.5-0.4,1-0.6,1.5c-0.1,0.3-0.2,0.5-0.3,0.8
		c-0.1,0.2-0.2,0.4-0.3,0.6c-0.6,0-1.3,0-1.9,0c0.2-1,0.5-1.9,1-2.9c0.1-0.2,0.1-0.3,0.2-0.5c0.2-0.5,0.5-1.1,0.7-1.6
		c0.2-0.4,0.3-0.7,0.5-1.1c0.3-0.7,0.7-1.5,1-2.2c0.7-1.5,1.4-3.1,2-4.6c0.2-0.5,0.4-1,0.6-1.5C168.5,17.5,168.7,17.2,168.8,16.9z"
		/>
	<path class="st4" d="M30.5,16.9c0,3.4,0,6.8,0,10.3c0.8,0,1.6,0,2.4,0c0,0.6,0,1.3,0,1.9c-0.8,0-1.6,0-2.4,0c0,1,0,2.1,0,3.1
		c-0.7,0-1.4,0-2.2,0c0-1,0-2.1,0-3.1c-2.3,0-4.6,0-7,0c0-2.2,0-2.2,0.8-3.1c0.2-0.2,0.4-0.4,0.5-0.7c0.1-0.2,0.1-0.2,0.3-0.4
		c0.6-0.7,1.1-1.5,1.6-2.2c0.1-0.2,0.2-0.3,0.3-0.5c0.6-0.9,1.2-1.7,1.7-2.6c0.1-0.2,0.2-0.4,0.3-0.5c0.2-0.3,0.4-0.7,0.6-1
		c0.1-0.2,0.2-0.3,0.3-0.5c0.1-0.1,0.2-0.3,0.3-0.4C28.6,16.9,28.6,16.9,30.5,16.9z"/>
	<path class="st3" d="M147.9,16.6c8.9,0,8.9,0,11.3,2.2c1.3,1.6,1.8,3.3,1.7,5.4c0,0.3,0,0.3,0,0.5c0,2.2-0.5,4-2,5.6
		c-3.2,2.7-7.1,1.9-11.1,1.9C147.9,27.1,147.9,21.9,147.9,16.6z M149.8,18.3c0,4,0,8.1,0,12.3c4.2,0.2,4.2,0.2,7.7-1.4
		c1.3-1.3,1.5-2.9,1.5-4.7c0-0.3,0-0.6,0-0.9c-0.1-1.9-0.6-3-2-4.3C154.5,18,154.5,18,149.8,18.3z"/>
	<path class="st6" d="M267.9,16.6c1.4,0,1.4,0,1.9,0.4c0.2,0.3,0.2,0.3,0.4,0.6c0.2,0.3,0.2,0.3,0.5,0.6c0.2,0.2,0.3,0.4,0.5,0.7
		c0.2,0.2,0.3,0.5,0.5,0.7c0.3,0.5,0.7,0.9,1,1.4c0.6,0.9,1.3,1.7,1.9,2.6c0.3,0.4,0.6,0.8,0.8,1.1c0.9,1.3,1.9,2.5,2.8,3.7
		c0.1-3.9,0.2-7.8,0.2-11.8c0.6,0,1.1,0,1.7,0c0,5.2,0,10.3,0,15.6c-1.4,0-1.4,0-1.9-0.4c-0.1-0.2-0.3-0.4-0.4-0.6
		c-0.2-0.2-0.3-0.4-0.5-0.6c-0.2-0.2-0.3-0.5-0.5-0.7c-0.2-0.2-0.3-0.5-0.5-0.7c-0.5-0.7-1-1.3-1.4-2c-0.3-0.5-0.7-0.9-1-1.4
		c-0.3-0.4-0.6-0.8-0.9-1.3c-1-1.4-2.1-2.9-3.1-4.3c-0.1,4-0.2,7.9-0.2,12c-0.6,0-1.1,0-1.7,0C267.9,27.1,267.9,21.9,267.9,16.6z"/>
	<path class="st7" d="M134.4,16.9c0.6,0,1.1,0,1.7,0c0,3.5,0,7,0,10.6c0.7,0,1.4,0,2.2,0c0,0.5,0,1,0,1.4c-0.7,0-1.4,0-2.2,0
		c0,1.1,0,2.2,0,3.4c-0.6,0-1.1,0-1.7,0c0-1.1,0-2.2,0-3.4c-2.4,0-4.8,0-7.2,0c0-1.9,0-1.9,0.5-2.5c0.1-0.2,0.2-0.3,0.3-0.5
		c0.1-0.2,0.2-0.3,0.4-0.5c0.3-0.4,0.5-0.7,0.8-1.1c0.2-0.3,0.2-0.3,0.4-0.6c0.9-1.2,1.7-2.4,2.5-3.6c0.3-0.5,0.7-0.9,1-1.4
		C133.6,18.1,134,17.5,134.4,16.9z"/>
	<path class="st8" d="M238,16.6c0.3,0,0.5,0,0.8,0c0,0.1,0,0.3,0,0.4c0,1.4,0,2.8,0,4.2c0,0.5,0,1,0,1.6c0,0.8,0,1.5,0,2.3
		c0,0.2,0,0.5,0,0.7c0,1.5,0.2,2.6,1.1,3.8c1.2,1,2.3,1.1,3.9,1.1c1.1-0.2,1.9-0.5,2.6-1.3c0.8-1.4,0.8-2.7,0.8-4.3
		c0-0.2,0-0.5,0-0.7c0-0.8,0-1.5,0-2.3c0-0.5,0-1.1,0-1.6c0-1.3,0-2.6,0.1-3.8c0.6,0,1.1,0,1.7,0c0.5,0.5,0.3,1.7,0.3,2.4
		c0,0.2,0,0.4,0,0.7c0,0.5,0,0.9,0,1.4c0,0.7,0,1.4,0,2.1c0,5.7,0,5.7-2,8c-1.4,1.1-2.7,1.2-4.3,1.2c-0.2,0-0.4,0-0.6,0
		c-1.6,0-2.8-0.5-4-1.5c-1.5-1.8-1.8-3.9-1.8-6.2c0-0.2,0-0.5,0-0.7c0-0.5,0-0.9,0-1.4c0-0.7,0-1.4,0-2.2c0-0.5,0-0.9,0-1.4
		c0-0.2,0-0.4,0-0.7C236.8,16.6,236.8,16.6,238,16.6z"/>
	<path class="st9" d="M211.6,16.6c3.3,0,6.5,0,9.9,0c0,0.6,0,1.1,0,1.7c-2.7,0-5.4,0-8.2,0c0,1.7,0,3.5,0,5.3c2.5,0,5.1,0,7.7,0
		c0,0.5,0,1,0,1.4c-2.5,0-5.1,0-7.7,0c0,1.8,0,3.7,0,5.5c2.7,0,5.4,0,8.2,0c0,0.6,0,1.1,0,1.7c-3.3,0-6.5,0-9.9,0
		C211.6,27.1,211.6,21.9,211.6,16.6z"/>
	<path class="st1" d="M56.3,16.6c2.4,0,2.4,0,4.8,0c0.5,0,1,0,1.5,0c0.4,0,0.8,0,1.2,0c0.3,0,0.3,0,0.6,0c0.5,0,1,0,1.5,0
		c0.2,0.2,0.2,0.2,0.2,1.7c-2.7,0-5.4,0-8.2,0c0,1.7,0,3.5,0,5.3c2.5,0,5.1,0,7.7,0c0,0.5,0,1,0,1.4c-2.5,0-5.1,0-7.7,0
		c0,1.8,0,3.7,0,5.5c2.7,0,5.4,0,8.2,0c0,0.6,0,1.1,0,1.7c-3.3,0-6.5,0-9.9,0C56.3,27.1,56.3,21.9,56.3,16.6z"/>
	<path class="st10" d="M89.3,16.5c0.2,0,0.4,0,0.5,0c1.9,0,3.4,0.6,4.9,1.8c-0.2,0.5-0.3,1-0.5,1.4c-0.9-0.1-1.5-0.5-2.2-1
		c-1.2-0.7-2.7-0.6-4-0.5c-1,0.4-1.7,0.7-2.2,1.7c-0.1,1-0.1,1.5,0.4,2.3c1.1,0.9,2.6,1.2,3.9,1.5c1.8,0.5,3.2,0.9,4.4,2.3
		c0.6,1.1,0.6,2,0.2,3.2c-0.6,1.3-1.4,2-2.7,2.6c-2.2,0.6-5.1,0.5-7.2-0.4c-0.5-0.3-1-0.6-1.4-1c0.2-0.7,0.2-0.7,0.5-1.4
		c0.7,0.2,1.3,0.4,1.9,0.7c1.6,0.8,3.3,1,5.1,0.6c0.9-0.3,1.5-0.7,1.9-1.6c0.1-1.1,0.1-1.1-0.3-2.1c-0.5-0.4-0.9-0.5-1.5-0.7
		c-0.2-0.1-0.4-0.1-0.7-0.2c-0.2-0.1-0.5-0.1-0.7-0.2c-2.3-0.6-4.3-1.1-5.7-3.1c-0.4-0.8-0.3-1.7-0.2-2.6c0.5-1.5,1.6-2.5,2.9-3.2
		C87.5,16.5,88.3,16.5,89.3,16.5z"/>
	<path class="st10" d="M288.9,16.5c0.2,0,0.4,0,0.5,0c1.9,0,3.4,0.6,4.9,1.8c-0.2,0.5-0.3,1-0.5,1.4c-0.6-0.2-1.1-0.4-1.7-0.7
		c-1.6-0.8-3.1-1-4.9-0.6c-0.9,0.3-1.5,0.7-1.9,1.6c-0.1,1-0.1,1.5,0.4,2.3c1.1,0.9,2.6,1.2,3.9,1.5c1.8,0.5,3,1,4.4,2.2
		c0.6,1,0.6,1.9,0.4,3.1c-0.4,1.2-1.1,1.9-2.2,2.5c-2.2,0.9-5.2,1.1-7.4,0.2c-0.7-0.3-1.3-0.8-2-1.2c0.2-0.7,0.2-0.7,0.5-1.4
		c0.7,0,0.7,0,1.4,0.5c1.7,1.1,3.8,1.3,5.8,0.9c0.8-0.2,0.8-0.2,1.5-0.6c0.3-0.9,0.3-1.7,0.2-2.6c-1.2-1.3-2.9-1.4-4.5-1.8
		c-1.8-0.5-3.3-1.1-4.4-2.7c-0.4-1.2-0.3-2.1,0-3.3C284.7,17.2,286.5,16.5,288.9,16.5z"/>
	<path class="st9" d="M17.1,16.9c0,4.4,0,8.9,0,13.5c1.1,0,2.2,0,3.4,0c0,0.6,0,1.3,0,1.9c-3,0-6,0-9.1,0c0-0.6,0-1.3,0-1.9
		c1.1,0,2.2,0,3.4,0c0-3.5,0-7,0-10.6c-0.7,0.4-1.4,0.8-2.2,1.2c-0.2,0-0.5,0-0.7,0c-0.7-1-0.7-1-0.7-1.7c0.6-0.5,1.3-0.8,1.9-1.2
		c0.2-0.1,0.4-0.2,0.5-0.3c0.2-0.1,0.4-0.2,0.5-0.3c0.2-0.1,0.3-0.2,0.5-0.3C15.1,16.9,15.1,16.9,17.1,16.9z"/>
	<path class="st8" d="M175.8,16.6c0.7-0.1,1.2-0.2,1.9,0c0.7,0.5,1.1,1.2,1.6,1.9c0.1,0.2,0.3,0.4,0.4,0.5c0.3,0.4,0.5,0.7,0.8,1.1
		c0.5,0.7,1,1.4,1.6,2.1c0.3,0.4,0.3,0.4,0.3,0.9c1.1-1,1.9-2.1,2.8-3.2c0.2-0.3,0.2-0.3,0.4-0.5c0.6-0.7,1.1-1.4,1.5-2.2
		c0.3-0.5,0.3-0.5,0.9-0.6c0.2,0,0.4,0,0.6,0c0.2,0,0.4,0,0.6,0c0.1,0,0.3,0,0.4,0c-0.4,0.9-1,1.7-1.5,2.5c-0.2,0.2-0.2,0.2-0.3,0.5
		c-0.6,0.8-1.1,1.5-1.8,2.2c-2.5,2.7-2.4,5.5-2.4,9c0,0.5,0,1,0,1.5c-0.6,0-1.3,0-1.9,0c0-0.2,0-0.4,0-0.6c0.3-5.3,0.3-5.3-2.1-9.8
		c-0.3-0.3-0.6-0.6-0.9-0.9c-0.7-0.7-1.2-1.5-1.8-2.3c-0.1-0.1-0.2-0.3-0.3-0.4C175.8,17.2,175.8,17.2,175.8,16.6z"/>
	<path class="st8" d="M95.2,16.6c0.9-0.2,1.3-0.3,2.2,0c0.8,0.9,1.5,1.9,2.1,2.9c0.5,0.7,1,1.4,1.5,2.1c0.2,0.2,0.3,0.5,0.5,0.7
		c0.4,0.6,0.4,0.6,0.9,0.8c0.1-0.1,0.1-0.3,0.2-0.4c0.3-0.6,0.7-1.1,1-1.6c0.1-0.2,0.3-0.4,0.4-0.6c0.2-0.2,0.3-0.4,0.5-0.6
		c0.2-0.2,0.3-0.4,0.5-0.6c0.4-0.6,0.8-1.1,1.2-1.7c0.1-0.2,0.3-0.4,0.4-0.5c0.3-0.4,0.3-0.4,0.8-0.5c0.7,0,0.7,0,1.4,0.1
		c-0.3,0.9-0.7,1.6-1.3,2.4c-0.2,0.2-0.3,0.4-0.5,0.7c-0.2,0.2-0.3,0.4-0.5,0.7c-0.5,0.7-1,1.3-1.5,2c-0.5,0.6-0.5,0.6-0.8,1
		c-1.3,1.4-1,3.5-1,5.2c0,0.4,0,0.7,0,1.1c0,0.9,0,1.8,0,2.7c-0.6,0-1.3,0-1.9,0c0-0.2,0-0.4,0-0.6c0.2-4.1,0.2-7-2.6-10.3
		c-0.3-0.4-0.7-0.7-1-1.1c-0.6-0.7-1.1-1.4-1.7-2.1c-0.1-0.2-0.3-0.4-0.4-0.6C95.2,17.1,95.2,17.1,95.2,16.6z"/>
	<path class="st6" d="M222.4,16.9c4.1,0,8.3,0,12.5,0c0,0.5,0,1,0,1.4c-1.7,0-3.5,0-5.3,0c0,4.6,0,9.2,0,13.9c-0.6,0-1.3,0-1.9,0
		c0-4.6,0-9.2,0-13.9c-1.7,0-3.5,0-5.3,0C222.4,17.8,222.4,17.3,222.4,16.9z"/>
	<path class="st11" d="M198.4,18.3c1.4,0,1.4,0,2.8,0c0.4,0,0.4,0,0.9,0c1.6,0,2.7,0.1,4,1.2c0.4,0.9,0.4,1.8,0.3,2.7
		c-0.4,1-0.9,1.4-1.9,1.9c-0.7,0.1-0.7,0.1-1.4,0.1c-0.3,0-0.5,0-0.8,0c-0.3,0-0.6,0-0.8,0c-0.4,0-0.4,0-0.9,0c-0.7,0-1.4,0-2.1,0
		C198.4,22.2,198.4,20.3,198.4,18.3z"/>
	<path class="st11" d="M254.7,18.3c1.4,0,1.4,0,2.8,0c0.4,0,0.4,0,0.9,0c1.6,0,2.7,0.1,4,1.2c0.4,0.9,0.4,1.8,0.3,2.7
		c-0.4,0.8-0.7,1.3-1.5,1.7c-0.7,0.2-1.3,0.3-2,0.3c-0.3,0-0.3,0-0.7,0c-0.3,0-0.6,0-0.9,0c-0.9,0-1.9,0-2.8,0
		C254.7,22.2,254.7,20.3,254.7,18.3z"/>
	<path class="st12" d="M122.2,16.9c0,4.6,0,9.2,0,13.9c1.2,0,2.4,0,3.6,0c0,0.5,0,1,0,1.4c-2.9,0-5.7,0-8.7,0c0-0.5,0-1,0-1.4
		c1.1,0,2.2,0,3.4,0c-0.1-3.8-0.2-7.6-0.2-11.5c-1.1,0.7-1.1,0.7-2.2,1.4c-0.2,0-0.3,0-0.5,0c-0.2-0.5-0.3-1-0.5-1.4
		c0.4-0.3,0.8-0.5,1.1-0.8c0.2-0.1,0.4-0.3,0.6-0.4c0.2-0.1,0.4-0.3,0.6-0.4c0.2-0.1,0.4-0.3,0.6-0.4
		C120.7,16.9,120.7,16.9,122.2,16.9z"/>
	<path class="st13" d="M169.8,19c0.6,0.8,1,1.5,1.4,2.4c0.2,0.4,0.2,0.4,0.4,0.8c0.1,0.3,0.2,0.6,0.4,0.9c0.1,0.3,0.2,0.6,0.4,0.9
		c0.9,2.2,0.9,2.2,0.9,2.7c-2.1,0-4.3,0-6.5,0c0.2-1,0.4-1.8,0.8-2.7c0.1-0.3,0.2-0.6,0.4-0.8c0.1-0.3,0.2-0.6,0.4-0.9
		c0.1-0.3,0.2-0.6,0.4-0.9C169.5,19.3,169.5,19.3,169.8,19z"/>
	<path class="st14" d="M74.5,19c0.6,0.8,1,1.5,1.4,2.4c0.2,0.4,0.2,0.4,0.4,0.8c0.1,0.3,0.2,0.6,0.4,0.9c0.1,0.3,0.2,0.6,0.4,0.9
		c0.9,2.2,0.9,2.2,0.9,2.7c-2.1,0-4.3,0-6.5,0c0.8-2.4,0.8-2.4,1.3-3.6c0.1-0.2,0.2-0.5,0.3-0.7c0.1-0.2,0.2-0.5,0.3-0.7
		c0.1-0.3,0.2-0.5,0.3-0.8C74,20.3,74.3,19.6,74.5,19z"/>
	<path class="st15" d="M134.2,19.7c0.1,0,0.2,0,0.2,0c0,2.5,0,5.1,0,7.7c-1.7,0-3.5,0-5.3,0c0.4-1.1,0.9-1.9,1.6-2.8
		c0.2-0.3,0.4-0.6,0.6-0.9c0.1-0.2,0.2-0.3,0.3-0.5c0.7-1,1.4-2,2.1-3C134,20,134,20,134.2,19.7z"/>
	<path class="st16" d="M28.1,20.7c0.1,0,0.2,0,0.2,0c0,2.1,0,4.3,0,6.5c-1.5,0-3,0-4.6,0c0.9-1.7,2-3.3,3.1-4.8
		c0.2-0.3,0.5-0.7,0.7-1C27.8,21.2,28,20.9,28.1,20.7z"/>
</g>
</svg>
